<?xml version="1.0" encoding="UTF-8"?>
<svg xmlns="http://www.w3.org/2000/svg" height="100%" viewBox="0 0 40 35" width="100%">
  <path d="M40 25.628c-.031 1.07-.538 2.06-1.392 2.73L31.6 33.88A5.23 5.23 0 0 1 28.36 35H.559A.56.56 0 0 1 0 34.45v-1.09a.56.56 0 0 1 .559-.55H28.37c.67 0 1.331-.22 1.859-.64l6.998-5.521a1.44 1.44 0 0 0 .061-2.23c-.579-.52-1.442-.42-1.971 0l-4.276 3.361a3.03 3.03 0 0 1-1.859.64H16.668c-.609 0-1.107-.49-1.107-1.09s.498-1.09 1.107-1.09h6.115c.924 0 1.666-.73 1.666-1.64s-.742-1.64-1.666-1.64H12.595c-.955 0-1.899.31-2.661.88l-3.261 2.41H.559a.56.56 0 0 1-.559-.55v-1.09a.56.56 0 0 1 .559-.55h5.363l2.661-1.97a6.74 6.74 0 0 1 4.002-1.31H22.6c1.96 0 3.738 1.35 4.012 3.261.122.79-.01 1.55-.335 2.21h2.885c.173 0 .335-.05.467-.16l4.276-3.371c1.422-1.12 3.484-1.13 4.855.08a3.65 3.65 0 0 1 1.229 2.831H40zM11.559 9.315c-2.194-2.26-2.062-6.021.386-8.112 2.468-2.11 5.688-1.12 7.283.53l.772.79.782-.79c1.635-1.69 4.835-2.62 7.283-.53 2.458 2.09 2.58 5.841.386 8.112l-7.557 7.801a1.21 1.21 0 0 1-1.767 0l-7.557-7.801h-.01zm1.564-1.53L20 14.886l6.877-7.101c1.168-1.2 1.412-3.521-.234-4.931-1.453-1.23-3.362-.57-4.297.39l-2.336 2.41-2.336-2.41c-.955-.98-2.854-1.62-4.297-.39-1.646 1.41-1.392 3.741-.234 4.931h-.02z" fill="#702082"></path>
</svg>
